<svg width="2100" height="240" viewBox="0 0 2100 240" fill="none" xmlns="http://www.w3.org/2000/svg">
<g clip-path="url(#clip0_803_2)">
<path fill-rule="evenodd" clip-rule="evenodd" d="M632 33.866V240H656.706L740.167 33.866H632ZM705.278 240H1468.58V0H800.331L705.278 240ZM1417.63 216.86C1415.44 214.05 1411.23 209.524 1404.98 203.28L1383.44 181.74C1375.33 173.623 1366.66 165.116 1357.45 156.219C1348.4 147.322 1339.82 138.893 1331.7 130.932C1323.58 122.816 1316.48 115.636 1310.39 109.392C1304.31 102.992 1300.25 98.4658 1298.22 95.8123L1293.77 89.7248L1294.47 97.2171V209.133H1268.72V31.4253C1270.43 33.6106 1273.24 36.7323 1277.15 40.7907C1281.2 44.849 1285.89 49.6097 1291.19 55.0729C1296.66 60.3799 1302.59 66.1553 1308.99 72.3988C1315.54 78.6424 1322.1 84.9641 1328.66 91.3637C1335.37 97.7634 1341.92 104.085 1348.32 110.329C1354.88 116.416 1360.81 122.113 1366.12 127.42C1371.58 132.727 1376.26 137.41 1380.16 141.468C1384.07 145.527 1386.8 148.571 1388.36 150.6L1392.81 157.156L1392.11 149.195V39.3859H1417.63V216.86ZM827.657 209.133V39.3859H939.105V62.5652H853.411V112.202H929.739V135.849H853.411V185.486H942.383V209.133H827.657ZM977.078 39.3859C978.171 42.0394 979.966 46.4099 982.463 52.4974C984.961 58.4288 987.771 65.2187 990.892 72.8671C994.17 80.5155 997.526 88.6321 1000.96 97.2171C1004.55 105.802 1007.91 113.919 1011.03 121.567C1014.15 129.215 1016.96 136.083 1019.46 142.171C1021.95 148.102 1023.75 152.395 1024.84 155.048C1025 155.36 1025.39 156.453 1026.01 158.326C1026.64 160.199 1027.11 161.838 1027.42 163.243L1029.76 155.048C1030.85 152.395 1032.65 148.102 1035.14 142.171C1037.64 136.083 1040.45 129.215 1043.57 121.567C1046.69 113.919 1049.97 105.802 1053.41 97.2171C1057 88.6321 1060.35 80.5155 1063.47 72.8671C1066.75 65.2187 1069.64 58.4288 1072.14 52.4974C1074.63 46.4099 1076.43 42.0394 1077.52 39.3859H1102.81C1101.87 41.5711 1100.16 45.5514 1097.66 51.3267C1095.32 56.946 1092.43 63.8139 1088.99 71.9306C1085.56 80.0472 1081.74 88.9443 1077.52 98.6219C1073.46 108.299 1069.25 118.133 1064.88 128.123C1060.66 138.113 1056.45 147.946 1052.24 157.624C1048.18 167.301 1044.43 176.198 1041 184.315C1037.72 192.432 1034.83 199.378 1032.33 205.153C1029.99 210.772 1028.35 214.675 1027.42 216.86L951.792 39.3859H977.078ZM1124.21 39.3859V209.133H1238.94V185.486H1149.97V135.849H1226.29V112.202H1149.97V62.5652H1235.66V39.3859H1124.21Z" fill="white"/>
</g>
<defs>
<clipPath id="clip0_803_2">
<rect width="2100" height="240" fill="white"/>
</clipPath>
</defs>
</svg>
